<svg width="33" height="32" viewBox="0 0 33 32" fill="none" xmlns="http://www.w3.org/2000/svg">
<path d="M15.4901 24.589C15.4901 28.682 12.172 32 8.07901 32C3.98601 32 0.667969 28.682 0.667969 24.589C0.667969 20.496 3.98601 17.1779 8.07901 17.1779C12.172 17.1779 15.4901 20.496 15.4901 24.589Z" fill="url(#paint0_linear_497_749)"/>
<path d="M32.668 7.41104C32.668 11.504 29.3499 14.8221 25.2569 14.8221C21.1639 14.8221 17.8459 11.504 17.8459 7.41104C17.8459 3.31804 21.1639 0 25.2569 0C29.3499 0 32.668 3.31804 32.668 7.41104Z" fill="url(#paint1_linear_497_749)"/>
<path d="M15.4901 7.41104C15.4901 11.504 12.172 14.8221 8.07901 14.8221C3.98601 14.8221 0.667969 11.504 0.667969 7.41104C0.667969 3.31804 3.98601 0 8.07901 0C12.172 0 15.4901 3.31804 15.4901 7.41104Z" fill="url(#paint2_linear_497_749)"/>
<path d="M32.668 24.589C32.668 28.682 29.3499 32 25.2569 32C21.1639 32 17.8459 28.682 17.8459 24.589C17.8459 20.496 21.1639 17.1779 25.2569 17.1779C29.3499 17.1779 32.668 20.496 32.668 24.589Z" fill="url(#paint3_linear_497_749)"/>
<defs>
<linearGradient id="paint0_linear_497_749" x1="0.667969" y1="32" x2="37.2504" y2="25.4001" gradientUnits="userSpaceOnUse">
<stop stop-color="#1975FF"/>
<stop offset="1" stop-color="#33A9FF"/>
</linearGradient>
<linearGradient id="paint1_linear_497_749" x1="0.667969" y1="32" x2="37.2504" y2="25.4001" gradientUnits="userSpaceOnUse">
<stop stop-color="#1975FF"/>
<stop offset="1" stop-color="#33A9FF"/>
</linearGradient>
<linearGradient id="paint2_linear_497_749" x1="0.667969" y1="32" x2="37.2504" y2="25.4001" gradientUnits="userSpaceOnUse">
<stop stop-color="#1975FF"/>
<stop offset="1" stop-color="#33A9FF"/>
</linearGradient>
<linearGradient id="paint3_linear_497_749" x1="0.667969" y1="32" x2="37.2504" y2="25.4001" gradientUnits="userSpaceOnUse">
<stop stop-color="#1975FF"/>
<stop offset="1" stop-color="#33A9FF"/>
</linearGradient>
</defs>
</svg>
