<svg width="190" height="32" viewBox="0 0 190 32" fill="none" xmlns="http://www.w3.org/2000/svg">
<path d="M15.4901 24.589C15.4901 28.682 12.172 32 8.07901 32C3.98601 32 0.667969 28.682 0.667969 24.589C0.667969 20.496 3.98601 17.1779 8.07901 17.1779C12.172 17.1779 15.4901 20.496 15.4901 24.589Z" fill="url(#paint0_linear_497_748)"/>
<path d="M32.668 7.41104C32.668 11.504 29.3499 14.8221 25.2569 14.8221C21.1639 14.8221 17.8459 11.504 17.8459 7.41104C17.8459 3.31804 21.1639 0 25.2569 0C29.3499 0 32.668 3.31804 32.668 7.41104Z" fill="url(#paint1_linear_497_748)"/>
<path d="M15.4901 7.41104C15.4901 11.504 12.172 14.8221 8.07901 14.8221C3.98601 14.8221 0.667969 11.504 0.667969 7.41104C0.667969 3.31804 3.98601 0 8.07901 0C12.172 0 15.4901 3.31804 15.4901 7.41104Z" fill="url(#paint2_linear_497_748)"/>
<path d="M32.668 24.589C32.668 28.682 29.3499 32 25.2569 32C21.1639 32 17.8459 28.682 17.8459 24.589C17.8459 20.496 21.1639 17.1779 25.2569 17.1779C29.3499 17.1779 32.668 20.496 32.668 24.589Z" fill="url(#paint3_linear_497_748)"/>
<path d="M48.3984 25.5664C46.8536 25.5664 45.3576 25.3317 43.9104 24.8624C42.4829 24.3735 41.3584 23.7477 40.5371 22.9851L41.6224 20.6971C42.4047 21.4011 43.402 21.978 44.6144 22.4277C45.8464 22.858 47.1078 23.0731 48.3984 23.0731C50.0998 23.0731 51.3709 22.7895 52.2118 22.2224C53.0527 21.6357 53.4731 20.8633 53.4731 19.9051C53.4731 19.2011 53.2384 18.634 52.7691 18.2037C52.3193 17.754 51.7522 17.4117 51.0678 17.1771C50.4029 16.9424 49.4544 16.6784 48.2224 16.3851C46.6776 16.0135 45.426 15.642 44.4678 15.2704C43.5291 14.8989 42.7176 14.3317 42.0331 13.5691C41.3682 12.7869 41.0358 11.7406 41.0358 10.4304C41.0358 9.3353 41.3193 8.34774 41.8864 7.46774C42.4731 6.58774 43.3531 5.88374 44.5264 5.35574C45.6998 4.82774 47.1567 4.56374 48.8971 4.56374C50.1096 4.56374 51.3024 4.72018 52.4758 5.03307C53.6491 5.34596 54.6562 5.79574 55.4971 6.38241L54.5291 8.72907C53.6687 8.18152 52.7496 7.77085 51.7718 7.49707C50.794 7.20374 49.8358 7.05707 48.8971 7.05707C47.2349 7.05707 45.9833 7.36018 45.1424 7.96641C44.3211 8.57263 43.9104 9.35485 43.9104 10.3131C43.9104 11.0171 44.1451 11.594 44.6144 12.0437C45.0838 12.474 45.6607 12.8162 46.3451 13.0704C47.0491 13.3051 47.9976 13.5593 49.1904 13.8331C50.7353 14.2046 51.9771 14.5762 52.9158 14.9477C53.8544 15.3193 54.6562 15.8864 55.3211 16.6491C56.0056 17.4117 56.3478 18.4384 56.3478 19.7291C56.3478 20.8046 56.0544 21.7922 55.4678 22.6917C54.8811 23.5717 53.9913 24.2757 52.7984 24.8037C51.6056 25.3122 50.1389 25.5664 48.3984 25.5664Z" fill="white"/>
<path d="M66.2652 18.0864L63.0385 21.0784V25.3317H60.2225V3.56641H63.0385V17.5291L71.5159 9.78507H74.9185L68.3772 16.2091L75.5639 25.3317H72.1025L66.2652 18.0864Z" fill="white"/>
<path d="M91.2246 9.78507L83.686 26.8864C83.0211 28.4704 82.2389 29.5851 81.3393 30.2304C80.4593 30.8757 79.3935 31.1984 78.142 31.1984C77.3793 31.1984 76.6362 31.0713 75.9126 30.8171C75.2086 30.5824 74.622 30.2304 74.1526 29.7611L75.3553 27.6491C76.1571 28.4117 77.086 28.7931 78.142 28.7931C78.8264 28.7931 79.3935 28.6073 79.8433 28.2357C80.3126 27.8837 80.7331 27.2677 81.1046 26.3877L81.6033 25.3024L74.7393 9.78507H77.6726L83.0993 22.2224L88.4673 9.78507H91.2246Z" fill="white"/>
<path d="M107.474 17.6464C107.474 17.8615 107.454 18.1451 107.415 18.4971H94.8017C94.9777 19.866 95.5742 20.9709 96.591 21.8117C97.6275 22.6331 98.9084 23.0437 100.434 23.0437C102.291 23.0437 103.787 22.418 104.922 21.1664L106.476 22.9851C105.772 23.8064 104.892 24.4322 103.836 24.8624C102.8 25.2926 101.636 25.5077 100.346 25.5077C98.703 25.5077 97.2462 25.1753 95.975 24.5104C94.7039 23.826 93.7164 22.8775 93.0124 21.6651C92.3279 20.4526 91.9857 19.0837 91.9857 17.5584C91.9857 16.0526 92.3182 14.6935 92.983 13.4811C93.6675 12.2686 94.5964 11.33 95.7697 10.6651C96.9626 9.98063 98.3022 9.63841 99.7884 9.63841C101.275 9.63841 102.595 9.98063 103.748 10.6651C104.922 11.33 105.831 12.2686 106.476 13.4811C107.141 14.6935 107.474 16.082 107.474 17.6464ZM99.7884 12.0144C98.439 12.0144 97.3048 12.4251 96.3857 13.2464C95.4862 14.0677 94.9582 15.1433 94.8017 16.4731H104.775C104.619 15.1629 104.081 14.0971 103.162 13.2757C102.262 12.4349 101.138 12.0144 99.7884 12.0144Z" fill="white"/>
<path d="M140.232 4.79841L133.368 25.3317H130.288L124.686 8.93441L119.083 25.3317H115.944L109.08 4.79841H112.102L117.646 21.4891L123.424 4.79841H126.123L131.784 21.5771L137.446 4.79841H140.232Z" fill="white"/>
<path d="M147.897 9.63841C150.048 9.63841 151.691 10.1664 152.825 11.2224C153.979 12.2784 154.556 13.8526 154.556 15.9451V25.3317H151.886V23.2784C151.417 24.002 150.742 24.5593 149.862 24.9504C149.002 25.322 147.975 25.5077 146.782 25.5077C145.042 25.5077 143.644 25.0873 142.588 24.2464C141.551 23.4055 141.033 22.3006 141.033 20.9317C141.033 19.5629 141.532 18.4677 142.529 17.6464C143.526 16.8055 145.11 16.3851 147.281 16.3851H151.74V15.8277C151.74 14.6153 151.388 13.6864 150.684 13.0411C149.98 12.3957 148.943 12.0731 147.574 12.0731C146.655 12.0731 145.756 12.2295 144.876 12.5424C143.996 12.8357 143.252 13.2366 142.646 13.7451L141.473 11.6331C142.275 10.9877 143.233 10.4989 144.348 10.1664C145.462 9.81441 146.645 9.63841 147.897 9.63841ZM147.252 23.3371C148.327 23.3371 149.256 23.1024 150.038 22.6331C150.82 22.1442 151.388 21.4597 151.74 20.5797V18.4091H147.398C145.012 18.4091 143.82 19.2109 143.82 20.8144C143.82 21.5966 144.123 22.2126 144.729 22.6624C145.335 23.1122 146.176 23.3371 147.252 23.3371Z" fill="white"/>
<path d="M173.238 9.78507L166.432 25.3317H163.558L156.752 9.78507H159.686L165.024 22.2517L170.48 9.78507H173.238Z" fill="white"/>
<path d="M189.487 17.6464C189.487 17.8615 189.467 18.1451 189.428 18.4971H176.815C176.991 19.866 177.587 20.9709 178.604 21.8117C179.641 22.6331 180.921 23.0437 182.447 23.0437C184.305 23.0437 185.801 22.418 186.935 21.1664L188.489 22.9851C187.785 23.8064 186.905 24.4322 185.849 24.8624C184.813 25.2926 183.649 25.5077 182.359 25.5077C180.716 25.5077 179.259 25.1753 177.988 24.5104C176.717 23.826 175.729 22.8775 175.025 21.6651C174.341 20.4526 173.999 19.0837 173.999 17.5584C173.999 16.0526 174.331 14.6935 174.996 13.4811C175.68 12.2686 176.609 11.33 177.783 10.6651C178.976 9.98063 180.315 9.63841 181.801 9.63841C183.288 9.63841 184.608 9.98063 185.761 10.6651C186.935 11.33 187.844 12.2686 188.489 13.4811C189.154 14.6935 189.487 16.082 189.487 17.6464ZM181.801 12.0144C180.452 12.0144 179.318 12.4251 178.399 13.2464C177.499 14.0677 176.971 15.1433 176.815 16.4731H186.788C186.632 15.1629 186.094 14.0971 185.175 13.2757C184.275 12.4349 183.151 12.0144 181.801 12.0144Z" fill="white"/>
<defs>
<linearGradient id="paint0_linear_497_748" x1="0.667969" y1="32" x2="37.2504" y2="25.4001" gradientUnits="userSpaceOnUse">
<stop stop-color="#1975FF"/>
<stop offset="1" stop-color="#33A9FF"/>
</linearGradient>
<linearGradient id="paint1_linear_497_748" x1="0.667969" y1="32" x2="37.2504" y2="25.4001" gradientUnits="userSpaceOnUse">
<stop stop-color="#1975FF"/>
<stop offset="1" stop-color="#33A9FF"/>
</linearGradient>
<linearGradient id="paint2_linear_497_748" x1="0.667969" y1="32" x2="37.2504" y2="25.4001" gradientUnits="userSpaceOnUse">
<stop stop-color="#1975FF"/>
<stop offset="1" stop-color="#33A9FF"/>
</linearGradient>
<linearGradient id="paint3_linear_497_748" x1="0.667969" y1="32" x2="37.2504" y2="25.4001" gradientUnits="userSpaceOnUse">
<stop stop-color="#1975FF"/>
<stop offset="1" stop-color="#33A9FF"/>
</linearGradient>
</defs>
</svg>
